<svg id="f698cf57-4f6b-4529-a39c-70592e247574" xmlns="http://www.w3.org/2000/svg" xmlns:xlink="http://www.w3.org/1999/xlink" viewBox="0 0 840 726.85"><defs><style>.cls-1{opacity:0.8;}.cls-2{fill:url(#linear-gradient);}.cls-3,.cls-5{fill:#6876cb;}.cls-4,.cls-8{fill:#fff;}.cls-11,.cls-4{opacity:0.1;}.cls-11,.cls-13,.cls-14,.cls-17,.cls-4,.cls-5,.cls-9{isolation:isolate;}.cls-5,.cls-9{opacity:0.2;}.cls-6{opacity:0.3;}.cls-7{fill:url(#linear-gradient-2);}.cls-10{fill:#e0e0e0;}.cls-12{fill:url(#linear-gradient-3);}.cls-13{opacity:0.05;}.cls-14{fill:#4d8af0;}.cls-14,.cls-15,.cls-17{opacity:0.5;}.cls-16{fill:#47e6b1;}.cls-17{fill:#f55f44;}.cls-18{opacity:0.66;}.cls-19{fill:#c7ccec;}</style><linearGradient id="linear-gradient" x1="432" y1="482.23" x2="432" y2="709.15" gradientTransform="matrix(1, 0, 0, -1, 0, 728)" gradientUnits="userSpaceOnUse"><stop offset="0" stop-color="gray" stop-opacity="0.25"/><stop offset="0.54" stop-color="gray" stop-opacity="0.12"/><stop offset="1" stop-color="gray" stop-opacity="0.1"/></linearGradient><linearGradient id="linear-gradient-2" x1="473.4" y1="-1006.76" x2="473.4" y2="-821.33" gradientTransform="matrix(0.95, 0.32, 0.32, -0.95, 256.48, -476.31)" xlink:href="#linear-gradient"/><linearGradient id="linear-gradient-3" y1="469.91" y2="624.73" xlink:href="#linear-gradient"/></defs><title>not-found3</title><g class="cls-1"><ellipse class="cls-2" cx="432" cy="132.31" rx="146.46" ry="113.46"/></g><ellipse class="cls-3" cx="432" cy="132.31" rx="143.21" ry="110.94"/><path class="cls-4" d="M311.94,144.64C311.94,83.37,376,33.7,455.14,33.7A175.54,175.54,0,0,1,526.5,48.43c-25.17-17-58.1-27.33-94.14-27.33C353.27,21.1,289.15,70.77,289.15,132c0,41.14,28.91,77.05,71.86,96.21C330.94,207.91,311.94,178,311.94,144.64Z" transform="translate(0 0)"/><polygon class="cls-5" points="432 176.9 590.76 451.88 749.52 726.85 432 726.85 114.48 726.85 273.24 451.88 432 176.9"/><g class="cls-6"><path class="cls-7" d="M469.67,566.22,482,529.63a62.66,62.66,0,0,0-23.2-70.89l.1-.06a61.48,61.48,0,0,0-15.79-8h0l-.17-.06-.19-.06h0a61.55,61.55,0,0,0-16.9-3.18,59.27,59.27,0,0,0-6.11,0,62.32,62.32,0,0,0-10.49,1.45c-1,.22-2,.47-2.91.74s-1.93.56-2.88.87c-1.9.63-3.77,1.34-5.6,2.15-.92.4-1.83.82-2.72,1.27a61.47,61.47,0,0,0-7.75,4.56c-.83.57-1.64,1.16-2.44,1.76a62,62,0,0,0-21.24,29.6l-19.38,57.65a61.86,61.86,0,0,0-2.68,28.12c.2,1.45.45,2.89.74,4.32s.65,2.84,1,4.24c.27.93.55,1.86.86,2.78.46,1.37,1,2.74,1.51,4.08.37.89.76,1.78,1.17,2.66.81,1.75,1.71,3.46,2.68,5.13a54.1,54.1,0,0,0,3.16,4.88c.84,1.18,1.73,2.34,2.65,3.46a52.23,52.23,0,0,0,3.92,4.33,61.81,61.81,0,0,0,21,13.89h0l.34.14a21.66,21.66,0,0,1,1.4-2.17c3-4.11,8.22-7,13.19-5.92.36.08.72.19,1.08.3,2.52.89,5,2.48,7.43,3.26a6.66,6.66,0,0,0,5.61-.07c4.86-2.59,3.06-10.76,7.23-14.34a6.5,6.5,0,0,1,.61-.46,1.88,1.88,0,0,1-.16-.23c3.22-2,7.68-.67,11.39.62,4,1.41,9.22,2.36,12-.91,1.88-2.24,1.74-5.65,3.53-8,2.08-2.7,6-3,9.39-2.52l.17,0c6.5,2.68,13.6-1.77,13.1-8.78A54.77,54.77,0,0,1,469.67,566.22Z" transform="translate(0 0)"/></g><path class="cls-8" d="M383.21,620.21c2.92-4,7.93-6.8,12.73-5.71s9.35,5.66,13.62,3.37c5.84-3.12,1.7-14.59,11.18-15.44a12.44,12.44,0,0,1,5.77,1c4,1.63,10.26,3.47,13.34-.2,1.81-2.16,1.68-5.45,3.41-7.69,2-2.6,5.81-2.93,9.06-2.43l.16,0c6.27,2.59,13.13-1.71,12.64-8.47-.63-9,2.23-17.48,2.85-19.32l11.88-35.31A60.38,60.38,0,0,0,442,453.77h0a60.38,60.38,0,0,0-76.27,37.86L347,547.16a60.39,60.39,0,0,0,34.82,75.15A21.48,21.48,0,0,1,383.21,620.21Z" transform="translate(0 0)"/><circle class="cls-9" cx="405.35" cy="486.08" r="6.51"/><circle class="cls-9" cx="442.37" cy="498.53" r="6.51"/><ellipse class="cls-10" cx="415.58" cy="517.05" rx="9.76" ry="6.51" transform="translate(-207.01 746) rotate(-71.4)"/><circle class="cls-8" cx="552.53" cy="487.52" r="9.76"/><circle class="cls-8" cx="583.45" cy="472.17" r="4.88"/><path class="cls-11" d="M569.52,99.43a87.52,87.52,0,0,1,2.79,22c0,61.27-64.11,110.94-143.2,110.94-64.73,0-119.42-33.3-137.11-78.94,13.14,50.77,71,89,140.41,89,79.09,0,143.21-49.67,143.21-110.94A88.16,88.16,0,0,0,569.52,99.43Z" transform="translate(0 0)"/><g class="cls-1"><ellipse class="cls-12" cx="432" cy="180.68" rx="296.18" ry="77.41"/></g><text></text><path class="cls-8" d="M432,255.54c158.18,0,286.42-33.51,286.42-74.85H145.58C145.58,222,273.82,255.54,432,255.54Z" transform="translate(0 0)"/><path class="cls-13" d="M432,255.54c158.18,0,286.42-33.51,286.42-74.85H145.58C145.58,222,273.82,255.54,432,255.54Z" transform="translate(0 0)"/><rect class="cls-13" x="295.3" y="161.15" width="273.4" height="39.06" rx="17.22" ry="17.22"/><path class="cls-14" d="M133.89,57.81a3.68,3.68,0,0,1-2-4.44,1.86,1.86,0,0,0,.08-.41h0a1.84,1.84,0,0,0-3.31-1.22h0a1.82,1.82,0,0,0-.2.36A3.67,3.67,0,0,1,124,54.15a2,2,0,0,0-.41-.08h0a1.84,1.84,0,0,0-1.22,3.31h0a1.62,1.62,0,0,0,.36.21,3.68,3.68,0,0,1,2,4.44,1.89,1.89,0,0,0-.08.4h0A1.84,1.84,0,0,0,128,63.66h0a1.65,1.65,0,0,0,.2-.37,3.67,3.67,0,0,1,4.44-2,2,2,0,0,0,.41.08h0a1.84,1.84,0,0,0,1.22-3.31h0A1.62,1.62,0,0,0,133.89,57.81Z" transform="translate(0 0)"/><path class="cls-14" d="M642.89,363.81a3.68,3.68,0,0,1-2-4.44A1.86,1.86,0,0,0,641,359h0a1.84,1.84,0,0,0-3.31-1.22h0a1.82,1.82,0,0,0-.2.36,3.67,3.67,0,0,1-4.44,2,2,2,0,0,0-.41-.08h0a1.84,1.84,0,0,0-1.22,3.31h0a1.62,1.62,0,0,0,.36.21,3.68,3.68,0,0,1,2,4.44,1.89,1.89,0,0,0-.08.4h0a1.84,1.84,0,0,0,3.31,1.23h0a1.65,1.65,0,0,0,.2-.37,3.67,3.67,0,0,1,4.44-2,2,2,0,0,0,.41.08h0a1.84,1.84,0,0,0,1.22-3.31h0A1.62,1.62,0,0,0,642.89,363.81Z" transform="translate(0 0)"/><path class="cls-14" d="M80.89,505.81a3.68,3.68,0,0,1-2-4.44,1.86,1.86,0,0,0,.08-.41h0a1.84,1.84,0,0,0-3.31-1.22h0a1.82,1.82,0,0,0-.2.36,3.67,3.67,0,0,1-4.44,2,2,2,0,0,0-.41-.08h0a1.84,1.84,0,0,0-1.22,3.31h0a1.62,1.62,0,0,0,.36.21A3.68,3.68,0,0,1,71.75,510a1.89,1.89,0,0,0-.08.4h0A1.84,1.84,0,0,0,75,511.66h0a1.65,1.65,0,0,0,.2-.37,3.67,3.67,0,0,1,4.44-2,2,2,0,0,0,.41.08h0a1.84,1.84,0,0,0,1.22-3.31h0A1.62,1.62,0,0,0,80.89,505.81Z" transform="translate(0 0)"/><path class="cls-14" d="M25.89,174.81a3.68,3.68,0,0,1-2-4.44A1.86,1.86,0,0,0,24,170h0a1.84,1.84,0,0,0-3.31-1.22h0a1.82,1.82,0,0,0-.2.36A3.67,3.67,0,0,1,16,171.15a2,2,0,0,0-.41-.08h0a1.84,1.84,0,0,0-1.22,3.31h0a1.62,1.62,0,0,0,.36.21A3.68,3.68,0,0,1,16.8,179a1.89,1.89,0,0,0-.08.4h0A1.84,1.84,0,0,0,20,180.66h0a1.65,1.65,0,0,0,.2-.37,3.67,3.67,0,0,1,4.44-2,2,2,0,0,0,.41.08h0a1.84,1.84,0,0,0,1.22-3.31h0A1.62,1.62,0,0,0,25.89,174.81Z" transform="translate(0 0)"/><path class="cls-14" d="M632.89,6.81a3.68,3.68,0,0,1-2-4.44A1.86,1.86,0,0,0,631,2h0A1.84,1.84,0,0,0,627.66.74h0a1.82,1.82,0,0,0-.2.36,3.67,3.67,0,0,1-4.44,2,2,2,0,0,0-.41-.08h0a1.84,1.84,0,0,0-1.27,3.41h0a1.62,1.62,0,0,0,.36.21,3.68,3.68,0,0,1,2,4.44,1.89,1.89,0,0,0-.08.4h0A1.84,1.84,0,0,0,627,12.66h0a1.65,1.65,0,0,0,.2-.37,3.67,3.67,0,0,1,4.44-2,2,2,0,0,0,.41.08h0a1.84,1.84,0,0,0,1.22-3.31h0A1.62,1.62,0,0,0,632.89,6.81Z" transform="translate(0 0)"/><g class="cls-15"><rect class="cls-16" x="110" y="257.85" width="3" height="17"/><rect class="cls-16" x="103" y="264.85" width="17" height="3"/></g><g class="cls-15"><rect class="cls-16" x="830" y="177.85" width="3" height="17"/><rect class="cls-16" x="823" y="184.85" width="17" height="3"/></g><g class="cls-15"><rect class="cls-16" x="730" y="456.85" width="3" height="17"/><rect class="cls-16" x="723" y="463.85" width="17" height="3"/></g><circle class="cls-17" cx="723" cy="81.85" r="6"/><circle class="cls-17" cx="6" cy="12.85" r="6"/><circle class="cls-17" cx="186" cy="357.85" r="6"/><ellipse class="cls-13" cx="234" cy="154.43" rx="34" ry="7"/><ellipse class="cls-13" cx="234" cy="207.43" rx="34" ry="7"/><ellipse class="cls-13" cx="621" cy="154.43" rx="34" ry="7"/><ellipse class="cls-13" cx="621" cy="207.43" rx="34" ry="7"/><g class="cls-18"><path class="cls-19" d="M353.28,175l-1.69-24q-22.17,1.68-44.25,4l-1.68-15.22q19.71-34,41.25-66.88c7.23-.5,10.85-.73,18.09-1.12l3.51,64.48c5.75-.31,8.63-.45,14.38-.69l.57,13.64c-5.68.24-8.53.37-14.21.68l1.31,24C363.64,174.34,360.19,174.56,353.28,175Zm-29.16-35.45c10.6-1,15.9-1.43,26.51-2.18L348,100.31Q335.79,119.79,324.12,139.59Z" transform="translate(0 0)"/><path class="cls-19" d="M466.55,121.46A91.9,91.9,0,0,1,463.48,143,53.76,53.76,0,0,1,456,159.55a33.69,33.69,0,0,1-11.61,10.58,32.39,32.39,0,0,1-15.71,3.72,31.78,31.78,0,0,1-15.57-3.68,33.93,33.93,0,0,1-11.56-10.55,53.75,53.75,0,0,1-7.5-16.5,91.9,91.9,0,0,1-3.12-21.56A86,86,0,0,1,392.68,100a47.89,47.89,0,0,1,6.91-16.73,33.24,33.24,0,0,1,12-10.85,35.8,35.8,0,0,1,16.95-3.88,36.46,36.46,0,0,1,17.12,3.83A33.05,33.05,0,0,1,457.8,83.18a47.89,47.89,0,0,1,7,16.71A86,86,0,0,1,466.55,121.46Zm-57.5-.38a87.53,87.53,0,0,0,1.84,17.36,46.51,46.51,0,0,0,4.3,12.16,20,20,0,0,0,6.14,7.18,12.77,12.77,0,0,0,14.77,0,20,20,0,0,0,6.12-7.19,45.64,45.64,0,0,0,4.23-12.17A89.74,89.74,0,0,0,448.2,121a85.14,85.14,0,0,0-1.25-17.3,40.8,40.8,0,0,0-4.09-12.12,19.58,19.58,0,0,0-6.37-7.14,14.29,14.29,0,0,0-15.75,0,19.57,19.57,0,0,0-6.35,7.16,41.52,41.52,0,0,0-4.1,12.14A83,83,0,0,0,409,121.08Z" transform="translate(0 0)"/><path class="cls-19" d="M519.25,176l2-24q-22.16-1.69-44.33-2.73l.64-15.3q24.61-30.68,50.85-59.88c7.23.59,10.84.92,18.06,1.62L540.16,140c5.74.56,8.6.86,14.34,1.49L553,155c-5.66-.63-8.5-.92-14.16-1.47l-2.34,24C529.61,176.84,526.16,176.53,519.25,176Zm-23.46-39.45c10.62.62,15.93,1,26.53,1.85l3-37.07Q510.31,118.71,495.79,136.52Z" transform="translate(0 0)"/></g><ellipse class="cls-13" cx="432" cy="124.43" rx="34" ry="7"/><ellipse class="cls-13" cx="457" cy="51.43" rx="34" ry="7"/><ellipse class="cls-13" cx="392" cy="81.43" rx="34" ry="7"/><ellipse class="cls-13" cx="517" cy="94.43" rx="34" ry="7"/><ellipse class="cls-13" cx="432" cy="228.43" rx="34" ry="7"/></svg>